<svg width="28" height="28" viewBox="0 0 54 54" fill="none" xmlns="http://www.w3.org/2000/svg" data-astro-cid-mw7aashj=""> <circle cx="27" cy="27" r="27" fill="#070707" data-astro-cid-mw7aashj=""></circle> <path d="M27.6188 12.0007C27.2272 11.9846 27.0014 12.2554 26.9894 12.5286C26.9789 12.7661 27.087 12.9353 27.3082 13.1102C27.5227 13.2797 27.6293 13.4836 27.6121 13.7259C27.5954 13.9614 27.4596 14.1589 27.2066 14.2575C26.974 14.3482 26.7863 14.5009 26.739 14.7587C26.6835 15.0612 26.8622 15.362 27.1733 15.4324C27.4667 15.4988 27.6817 15.8243 27.5942 16.1487C27.4999 16.498 27.2066 16.6622 26.8729 16.5587C26.5823 16.4685 26.2656 16.6324 26.162 16.9295C26.0577 17.2287 26.2051 17.5515 26.4996 17.663L27.2401 17.954C27.5495 18.0886 27.6926 18.4517 27.558 18.7612C27.4234 19.0706 27.0627 19.2132 26.7532 19.0786L26.0278 18.7311C25.7469 18.5975 25.4116 18.7106 25.2652 18.9882C25.1182 19.267 25.2169 19.609 25.4883 19.7644C25.4883 19.7644 26.6007 20.4033 27.3028 20.8102C27.6188 20.9934 27.7047 21.4137 27.5113 21.7221C27.318 22.0304 26.899 22.1315 26.6024 21.9303C26.3058 21.729 24.8694 20.753 24.8694 20.753C24.6115 20.5771 24.2582 20.6361 24.0715 20.8896C23.8835 21.1447 23.9341 21.5022 24.1827 21.6955L27.358 24.2243C27.6658 24.4887 27.7013 24.9546 27.4369 25.2624C27.1725 25.5702 26.7101 25.6062 26.4023 25.3417L23.4335 22.5908C23.2051 22.3719 22.8319 22.3668 22.6073 22.5918C22.3841 22.8153 22.3872 23.1821 22.6022 23.4105L26.9834 28.1262C27.2797 28.4701 27.2398 28.9935 26.8959 29.2898C26.552 29.5862 26.032 29.5482 25.7357 29.2042L21.7149 24.1674C21.5209 23.9203 21.164 23.871 20.9096 24.059C20.6563 24.2461 20.5983 24.5995 20.7749 24.8572L25.1296 31.2406C25.3855 31.6475 25.2617 32.1869 24.8548 32.4428C24.448 32.6988 23.9084 32.5758 23.6525 32.1689L19.7878 25.4811C19.6326 25.2084 19.2869 25.1073 19.0077 25.255C18.7254 25.4043 18.6162 25.7526 18.7612 26.036L22.1544 33.0702C22.3482 33.5141 22.143 34.0309 21.6991 34.2247C21.2552 34.4186 20.7394 34.2154 20.5456 33.7714L17.6891 26.4951C17.5759 26.2032 17.2506 26.0517 16.9529 26.1559C16.6547 26.2604 16.4949 26.5828 16.5896 26.882L18.5604 33.2674C18.6798 33.7124 18.4138 34.1717 17.9688 34.2911C17.5238 34.4104 17.0671 34.1474 16.9478 33.7024L15.461 27.1855C15.3942 26.8779 15.0915 26.676 14.7803 26.7349C14.4667 26.7942 14.2614 27.0956 14.3161 27.409L14.8671 31.0625C14.9117 31.4591 14.6184 31.8162 14.2219 31.8609C13.8253 31.9056 13.473 31.6208 13.4283 31.2243L13.1543 27.526C13.1338 27.2134 12.8662 26.972 12.5511 26.9838C12.2305 26.9958 11.9884 27.2642 12.0004 27.5848L12.0021 27.6146C12.3275 35.6144 18.9154 42 26.9947 42C35.2819 42 42 35.2816 42 26.994C42 18.9154 35.6166 12.3279 27.6188 12.0007Z" fill="white" data-astro-cid-mw7aashj=""></path> </svg>